<svg width="448" height="94" viewBox="0 0 448 94" fill="none" xmlns="http://www.w3.org/2000/svg">
<path d="M53.8409 58H43.5284V28.9091H53.9261C56.8523 28.9091 59.3712 29.4915 61.483 30.6562C63.5947 31.8116 65.2188 33.4735 66.3551 35.642C67.5009 37.8106 68.0739 40.4053 68.0739 43.4261C68.0739 46.4564 67.5009 49.0606 66.3551 51.2386C65.2188 53.4167 63.5852 55.0881 61.4545 56.2528C59.3333 57.4176 56.7955 58 53.8409 58ZM49.679 52.7301H53.5852C55.4034 52.7301 56.9328 52.4081 58.1733 51.7642C59.4233 51.1108 60.3608 50.1023 60.9858 48.7386C61.6203 47.3655 61.9375 45.5947 61.9375 43.4261C61.9375 41.2765 61.6203 39.5199 60.9858 38.1562C60.3608 36.7926 59.428 35.7888 58.1875 35.1449C56.947 34.5009 55.4176 34.179 53.5994 34.179H49.679V52.7301ZM82.4595 58.4261C80.2152 58.4261 78.2834 57.9716 76.6641 57.0625C75.0542 56.1439 73.8137 54.8466 72.9425 53.1705C72.0713 51.4848 71.6357 49.4915 71.6357 47.1903C71.6357 44.946 72.0713 42.9763 72.9425 41.2812C73.8137 39.5862 75.04 38.2652 76.6214 37.3182C78.2124 36.3712 80.0779 35.8977 82.218 35.8977C83.6574 35.8977 84.9974 36.1297 86.2379 36.5938C87.4879 37.0483 88.5769 37.7348 89.505 38.6534C90.4425 39.572 91.1716 40.7273 91.6925 42.1193C92.2133 43.5019 92.4737 45.1212 92.4737 46.9773V48.6392H74.0504V44.8892H86.7777C86.7777 44.018 86.5883 43.2462 86.2095 42.5739C85.8307 41.9015 85.3052 41.3759 84.6328 40.9972C83.9699 40.6089 83.1982 40.4148 82.3175 40.4148C81.3989 40.4148 80.5845 40.6278 79.8743 41.054C79.1735 41.4706 78.6243 42.0341 78.2266 42.7443C77.8288 43.4451 77.6252 44.2263 77.6158 45.0881V48.6534C77.6158 49.733 77.8146 50.6657 78.2124 51.4517C78.6196 52.2377 79.1925 52.8438 79.9311 53.2699C80.6697 53.696 81.5457 53.9091 82.5589 53.9091C83.2313 53.9091 83.8468 53.8144 84.4055 53.625C84.9643 53.4356 85.4425 53.1515 85.8402 52.7727C86.2379 52.3939 86.541 51.9299 86.7493 51.3807L92.3459 51.75C92.0618 53.0947 91.4794 54.2689 90.5987 55.2727C89.7275 56.267 88.6006 57.0436 87.218 57.6023C85.8449 58.1515 84.2588 58.4261 82.4595 58.4261ZM102.474 28.9091V58H96.4226V28.9091H102.474ZM107.321 58V36.1818H113.372V58H107.321ZM110.361 33.3693C109.461 33.3693 108.689 33.071 108.045 32.4744C107.411 31.8684 107.094 31.1439 107.094 30.3011C107.094 29.4678 107.411 28.7528 108.045 28.1562C108.689 27.5502 109.461 27.2472 110.361 27.2472C111.26 27.2472 112.027 27.5502 112.662 28.1562C113.306 28.7528 113.628 29.4678 113.628 30.3011C113.628 31.1439 113.306 31.8684 112.662 32.4744C112.027 33.071 111.26 33.3693 110.361 33.3693ZM128.077 58.4261C125.843 58.4261 123.92 57.9527 122.31 57.0057C120.71 56.0492 119.479 54.7235 118.617 53.0284C117.765 51.3333 117.339 49.3826 117.339 47.1761C117.339 44.9413 117.77 42.9811 118.631 41.2955C119.503 39.6004 120.738 38.2794 122.339 37.3324C123.939 36.3759 125.843 35.8977 128.049 35.8977C129.952 35.8977 131.619 36.2434 133.049 36.9347C134.479 37.6259 135.611 38.5966 136.444 39.8466C137.277 41.0966 137.737 42.5644 137.822 44.25H132.112C131.951 43.161 131.524 42.285 130.833 41.6222C130.151 40.9498 129.256 40.6136 128.148 40.6136C127.211 40.6136 126.392 40.8693 125.691 41.3807C125 41.8826 124.46 42.6165 124.072 43.5824C123.683 44.5483 123.489 45.7178 123.489 47.0909C123.489 48.483 123.679 49.6667 124.058 50.642C124.446 51.6174 124.99 52.3608 125.691 52.8722C126.392 53.3835 127.211 53.6392 128.148 53.6392C128.84 53.6392 129.46 53.4972 130.009 53.2131C130.568 52.929 131.027 52.517 131.387 51.9773C131.756 51.428 131.998 50.7699 132.112 50.0028H137.822C137.727 51.6695 137.272 53.1373 136.458 54.4062C135.653 55.6657 134.54 56.6506 133.12 57.3608C131.7 58.071 130.019 58.4261 128.077 58.4261ZM141.696 58V36.1818H147.747V58H141.696ZM144.736 33.3693C143.836 33.3693 143.064 33.071 142.42 32.4744C141.786 31.8684 141.469 31.1439 141.469 30.3011C141.469 29.4678 141.786 28.7528 142.42 28.1562C143.064 27.5502 143.836 27.2472 144.736 27.2472C145.635 27.2472 146.402 27.5502 147.037 28.1562C147.681 28.7528 148.003 29.4678 148.003 30.3011C148.003 31.1439 147.681 31.8684 147.037 32.4744C146.402 33.071 145.635 33.3693 144.736 33.3693ZM162.452 58.4261C160.246 58.4261 158.338 57.9574 156.728 57.0199C155.128 56.0729 153.892 54.7566 153.021 53.071C152.149 51.3759 151.714 49.411 151.714 47.1761C151.714 44.9223 152.149 42.9527 153.021 41.267C153.892 39.572 155.128 38.2557 156.728 37.3182C158.338 36.3712 160.246 35.8977 162.452 35.8977C164.659 35.8977 166.562 36.3712 168.163 37.3182C169.772 38.2557 171.013 39.572 171.884 41.267C172.755 42.9527 173.191 44.9223 173.191 47.1761C173.191 49.411 172.755 51.3759 171.884 53.071C171.013 54.7566 169.772 56.0729 168.163 57.0199C166.562 57.9574 164.659 58.4261 162.452 58.4261ZM162.481 53.7386C163.485 53.7386 164.323 53.4545 164.995 52.8864C165.667 52.3087 166.174 51.5227 166.515 50.5284C166.865 49.5341 167.04 48.4025 167.04 47.1335C167.04 45.8646 166.865 44.733 166.515 43.7386C166.174 42.7443 165.667 41.9583 164.995 41.3807C164.323 40.803 163.485 40.5142 162.481 40.5142C161.468 40.5142 160.615 40.803 159.924 41.3807C159.242 41.9583 158.726 42.7443 158.376 43.7386C158.035 44.733 157.864 45.8646 157.864 47.1335C157.864 48.4025 158.035 49.5341 158.376 50.5284C158.726 51.5227 159.242 52.3087 159.924 52.8864C160.615 53.4545 161.468 53.7386 162.481 53.7386ZM191.117 48.7102V36.1818H197.168V58H191.359V54.0369H191.131C190.639 55.3153 189.82 56.3428 188.674 57.1193C187.538 57.8958 186.15 58.2841 184.512 58.2841C183.054 58.2841 181.771 57.9527 180.663 57.2898C179.555 56.6269 178.688 55.6847 178.063 54.4631C177.448 53.2415 177.135 51.7784 177.126 50.0739V36.1818H183.177V48.9943C183.186 50.2822 183.532 51.3002 184.214 52.0483C184.896 52.7964 185.809 53.1705 186.955 53.1705C187.684 53.1705 188.366 53.0047 189.001 52.6733C189.635 52.3324 190.147 51.8305 190.535 51.1676C190.933 50.5047 191.127 49.6856 191.117 48.7102ZM220.162 42.4034L214.622 42.7443C214.527 42.2708 214.324 41.8447 214.011 41.4659C213.699 41.0777 213.287 40.7699 212.776 40.5426C212.274 40.3059 211.672 40.1875 210.972 40.1875C210.034 40.1875 209.243 40.3864 208.599 40.7841C207.955 41.1723 207.634 41.6932 207.634 42.3466C207.634 42.8674 207.842 43.3078 208.259 43.6676C208.675 44.0275 209.39 44.3163 210.403 44.5341L214.352 45.3295C216.473 45.7652 218.055 46.4659 219.097 47.4318C220.138 48.3977 220.659 49.6667 220.659 51.2386C220.659 52.6686 220.238 53.9233 219.395 55.0028C218.562 56.0824 217.416 56.9252 215.957 57.5312C214.509 58.1278 212.837 58.4261 210.943 58.4261C208.055 58.4261 205.754 57.8248 204.04 56.6222C202.335 55.41 201.336 53.7623 201.043 51.679L206.994 51.3665C207.174 52.2472 207.61 52.9195 208.301 53.3835C208.992 53.8381 209.878 54.0653 210.957 54.0653C212.018 54.0653 212.87 53.8617 213.514 53.4545C214.168 53.0379 214.499 52.5028 214.509 51.8494C214.499 51.3002 214.267 50.8504 213.812 50.5C213.358 50.1402 212.657 49.8655 211.71 49.6761L207.932 48.9233C205.801 48.4972 204.215 47.7585 203.173 46.7074C202.141 45.6562 201.625 44.3163 201.625 42.6875C201.625 41.286 202.004 40.0786 202.761 39.0653C203.528 38.0521 204.603 37.2708 205.986 36.7216C207.378 36.1723 209.007 35.8977 210.872 35.8977C213.628 35.8977 215.796 36.4801 217.378 37.6449C218.969 38.8097 219.897 40.3958 220.162 42.4034ZM233.841 58V28.9091H239.991V40.9119H252.477V28.9091H258.614V58H252.477V45.983H239.991V58H233.841ZM273.514 58.4261C271.27 58.4261 269.338 57.9716 267.719 57.0625C266.109 56.1439 264.868 54.8466 263.997 53.1705C263.126 51.4848 262.69 49.4915 262.69 47.1903C262.69 44.946 263.126 42.9763 263.997 41.2812C264.868 39.5862 266.095 38.2652 267.676 37.3182C269.267 36.3712 271.133 35.8977 273.273 35.8977C274.712 35.8977 276.052 36.1297 277.293 36.5938C278.543 37.0483 279.632 37.7348 280.56 38.6534C281.497 39.572 282.226 40.7273 282.747 42.1193C283.268 43.5019 283.528 45.1212 283.528 46.9773V48.6392H265.105V44.8892H277.832C277.832 44.018 277.643 43.2462 277.264 42.5739C276.885 41.9015 276.36 41.3759 275.688 40.9972C275.025 40.6089 274.253 40.4148 273.372 40.4148C272.454 40.4148 271.639 40.6278 270.929 41.054C270.228 41.4706 269.679 42.0341 269.281 42.7443C268.884 43.4451 268.68 44.2263 268.67 45.0881V48.6534C268.67 49.733 268.869 50.6657 269.267 51.4517C269.674 52.2377 270.247 52.8438 270.986 53.2699C271.724 53.696 272.6 53.9091 273.614 53.9091C274.286 53.9091 274.902 53.8144 275.46 53.625C276.019 53.4356 276.497 53.1515 276.895 52.7727C277.293 52.3939 277.596 51.9299 277.804 51.3807L283.401 51.75C283.116 53.0947 282.534 54.2689 281.653 55.2727C280.782 56.267 279.655 57.0436 278.273 57.6023C276.9 58.1515 275.313 58.4261 273.514 58.4261ZM293.699 58.4119C292.307 58.4119 291.066 58.1705 289.977 57.6875C288.888 57.1951 288.027 56.4706 287.392 55.5142C286.767 54.5483 286.455 53.3456 286.455 51.9062C286.455 50.6941 286.677 49.6761 287.122 48.8523C287.567 48.0284 288.173 47.3655 288.94 46.8636C289.707 46.3617 290.579 45.983 291.554 45.7273C292.539 45.4716 293.571 45.2917 294.651 45.1875C295.92 45.0549 296.942 44.9318 297.719 44.8182C298.495 44.6951 299.059 44.5152 299.409 44.2784C299.759 44.0417 299.935 43.6913 299.935 43.2273V43.142C299.935 42.2424 299.651 41.5464 299.082 41.054C298.524 40.5616 297.728 40.3153 296.696 40.3153C295.607 40.3153 294.741 40.5568 294.097 41.0398C293.453 41.5133 293.027 42.1098 292.818 42.8295L287.222 42.375C287.506 41.0492 288.064 39.9034 288.898 38.9375C289.731 37.9621 290.806 37.214 292.122 36.6932C293.448 36.1629 294.982 35.8977 296.724 35.8977C297.937 35.8977 299.097 36.0398 300.205 36.3239C301.322 36.608 302.312 37.0483 303.173 37.6449C304.045 38.2415 304.731 39.0085 305.233 39.946C305.735 40.8741 305.986 41.9867 305.986 43.2841V58H300.247V54.9744H300.077C299.726 55.6562 299.258 56.2576 298.67 56.7784C298.083 57.2898 297.378 57.6922 296.554 57.9858C295.73 58.2699 294.778 58.4119 293.699 58.4119ZM295.432 54.2358C296.322 54.2358 297.108 54.0606 297.79 53.7102C298.472 53.3504 299.007 52.8674 299.395 52.2614C299.783 51.6553 299.977 50.9687 299.977 50.2017V47.8864C299.788 48.0095 299.527 48.1231 299.196 48.2273C298.874 48.322 298.509 48.4119 298.102 48.4972C297.695 48.5729 297.288 48.6439 296.881 48.7102C296.473 48.767 296.104 48.8191 295.773 48.8665C295.063 48.9706 294.442 49.1364 293.912 49.3636C293.382 49.5909 292.97 49.8987 292.676 50.2869C292.383 50.6657 292.236 51.1392 292.236 51.7074C292.236 52.5312 292.534 53.161 293.131 53.5966C293.737 54.0227 294.504 54.2358 295.432 54.2358ZM316.732 28.9091V58H310.68V28.9091H316.732ZM333.184 36.1818V40.7273H320.045V36.1818H333.184ZM323.028 30.9545H329.079V51.2955C329.079 51.8542 329.164 52.2898 329.335 52.6023C329.505 52.9053 329.742 53.1184 330.045 53.2415C330.357 53.3646 330.717 53.4261 331.124 53.4261C331.408 53.4261 331.692 53.4025 331.977 53.3551C332.261 53.2983 332.478 53.2557 332.63 53.2273L333.582 57.7301C333.279 57.8248 332.853 57.9337 332.303 58.0568C331.754 58.1894 331.086 58.2699 330.3 58.2983C328.842 58.3551 327.564 58.161 326.465 57.7159C325.376 57.2708 324.529 56.5795 323.923 55.642C323.317 54.7045 323.018 53.5208 323.028 52.0909V30.9545ZM343.646 45.3864V58H337.594V28.9091H343.475V40.0312H343.731C344.223 38.7434 345.019 37.7348 346.117 37.0057C347.216 36.267 348.594 35.8977 350.251 35.8977C351.766 35.8977 353.087 36.2292 354.214 36.892C355.35 37.5455 356.231 38.4877 356.856 39.7188C357.49 40.9403 357.803 42.4034 357.793 44.108V58H351.742V45.1875C351.752 43.8428 351.411 42.7964 350.719 42.0483C350.038 41.3002 349.081 40.9261 347.85 40.9261C347.026 40.9261 346.297 41.1013 345.663 41.4517C345.038 41.8021 344.545 42.3134 344.185 42.9858C343.835 43.6487 343.655 44.4489 343.646 45.3864Z" fill="white"/>
<path d="M360.993 71.7388C360.993 71.7388 374.876 69.6229 386.74 60.2391" stroke="white" stroke-width="3" stroke-linecap="round" stroke-linejoin="round"/>
<path d="M411.09 38.6466L391.841 38.4053C379.726 38.2536 369.446 46.0907 368.892 55.7067C368.349 65.1418 377.536 73.0732 389.423 73.2222C401.31 73.3711 411.387 65.8432 411.931 56.408L412.867 40.1477C412.914 39.3316 412.119 38.6594 411.09 38.6466Z" stroke="white" stroke-width="3" stroke-linecap="round" stroke-linejoin="round"/>
</svg>
